<?xml version="1.0" standalone="no"?>
<!DOCTYPE svg PUBLIC "-//W3C//DTD SVG 20010904//EN"
 "http://www.w3.org/TR/2001/REC-SVG-20010904/DTD/svg10.dtd">
<svg version="1.0" xmlns="http://www.w3.org/2000/svg"
 width="480.000000pt" height="270.000000pt" viewBox="0 0 480.000000 270.000000"
 preserveAspectRatio="xMidYMid meet">

<g transform="translate(0.000000,270.000000) scale(0.100000,-0.100000)"
fill="#000000" stroke="none">
<path d="M0 1350 l0 -1350 2400 0 2400 0 0 1350 0 1350 -2400 0 -2400 0 0
-1350z m3759 1257 c6 -8 14 -28 17 -46 l7 -32 -37 21 c-29 18 -34 25 -26 40 5
9 6 20 3 24 -3 3 1 6 9 6 9 0 21 -6 27 -13z m-215 -43 c4 -9 0 -27 -8 -39 -13
-19 -13 -24 0 -37 13 -12 11 -16 -11 -28 -18 -9 -24 -19 -19 -32 3 -10 1 -18
-5 -18 -5 0 -13 29 -16 65 -6 55 -5 69 10 85 22 24 41 26 49 4z m237 -55 c30
-16 59 -92 66 -175 6 -74 22 -102 24 -41 0 17 2 28 4 22 26 -81 35 -118 30
-123 -3 -4 -10 0 -15 8 -6 10 -11 5 -17 -21 -10 -37 -43 -54 -43 -22 0 11 5
24 12 31 19 19 -5 13 -32 -8 -29 -23 -90 -27 -90 -6 0 7 11 25 25 40 26 28 32
82 16 151 -6 23 -3 35 12 52 20 22 20 22 -7 57 -14 19 -26 37 -26 40 0 9 20 7
41 -5z m-2306 -29 c1100 -25 1339 -32 1344 -36 5 -4 4 2 32 -501 l23 -401 27
29 c16 17 29 33 30 37 5 24 201 206 247 231 12 6 22 21 22 32 0 11 23 45 51
75 44 45 62 57 119 74 37 11 76 20 87 20 11 0 44 10 72 21 28 12 54 19 58 16
3 -4 -2 -22 -11 -41 -16 -35 -19 -93 -4 -102 4 -3 8 -16 8 -29 0 -13 13 -48
29 -77 17 -30 37 -76 46 -103 10 -26 23 -55 31 -62 8 -8 14 -19 14 -25 0 -5
11 -23 24 -39 l25 -29 18 25 c19 26 143 129 175 146 25 13 51 -6 43 -32 -19
-70 -20 -66 3 -44 10 11 18 23 15 28 -2 4 1 7 6 7 12 0 14 -14 5 -47 -6 -21
-10 -22 -64 -16 -38 4 -60 2 -64 -6 -5 -7 2 -11 18 -11 20 0 26 -5 27 -22 l0
-23 11 23 c13 26 28 27 83 8 44 -16 48 -33 14 -67 -10 -10 -19 -26 -19 -34 0
-8 -5 -24 -12 -35 -7 -10 -9 -23 -5 -27 10 -10 42 11 42 27 0 15 52 56 61 48
6 -7 -65 -157 -85 -180 -7 -7 -21 -28 -31 -46 -15 -25 -26 -32 -50 -32 -20 0
-30 5 -30 15 0 8 7 15 16 15 8 0 12 4 9 10 -3 5 -14 10 -25 10 -13 0 -17 -5
-13 -20 4 -16 0 -20 -21 -20 -28 0 -46 29 -46 74 0 13 -7 29 -15 36 -13 11
-15 8 -15 -14 0 -24 -4 -26 -40 -26 -22 0 -40 -2 -40 -4 0 -2 -3 -12 -7 -22
-5 -13 -3 -16 9 -12 9 4 15 0 15 -8 0 -8 -9 -14 -19 -14 -13 0 -18 8 -18 30 0
17 4 30 8 30 4 0 8 16 8 36 0 20 6 39 15 45 12 7 12 9 -2 9 -21 0 -79 50 -79
68 0 8 -3 12 -7 8 -10 -9 -38 53 -54 116 -7 29 -18 60 -25 68 -6 8 -14 22 -17
30 -4 8 -6 0 -4 -17 1 -18 -3 -33 -8 -33 -6 -1 -24 -10 -41 -21 -17 -10 -41
-19 -53 -19 -12 0 -39 -9 -61 -20 -52 -26 -45 -2 12 39 23 17 35 32 29 36 -6
3 -14 -1 -17 -9 -3 -9 -12 -16 -19 -16 -7 0 -18 -7 -25 -15 -18 -22 -32 -18
-30 8 6 63 -1 177 -10 177 -5 0 -10 -16 -10 -35 0 -34 -20 -49 -35 -25 -3 6
-18 10 -33 10 -20 0 -23 -3 -14 -12 7 -7 26 -17 44 -22 17 -6 33 -17 36 -23 3
-9 -5 -9 -31 2 -19 8 -37 11 -41 8 -10 -10 15 -33 35 -33 11 0 19 -4 19 -10 0
-5 -4 -10 -10 -10 -5 0 -9 -12 -9 -27 2 -24 2 -25 6 -5 2 12 11 22 19 22 16 0
19 -26 4 -35 -6 -4 -8 -11 -5 -16 4 -5 0 -9 -8 -9 -22 0 -28 -39 -11 -79 12
-28 12 -40 3 -58 -10 -18 -15 -20 -35 -11 -13 6 -24 15 -24 20 0 4 -6 8 -14 8
-14 0 -46 41 -46 61 0 14 68 -42 69 -57 1 -6 8 -11 16 -11 29 0 14 22 -42 62
-68 48 -103 68 -109 62 -3 -2 9 -10 26 -17 16 -7 30 -16 30 -21 0 -11 2 -11
-38 0 -28 9 -32 7 -32 -10 0 -16 5 -19 20 -14 11 3 20 2 20 -3 0 -6 -5 -12
-11 -14 -18 -6 19 -38 44 -38 17 0 19 -2 8 -9 -11 -7 -5 -11 22 -16 20 -4 34
-12 31 -17 -3 -5 0 -9 7 -7 30 4 37 -2 35 -26 -2 -13 1 -22 6 -19 5 3 29 -6
53 -21 l45 -26 -21 -28 c-11 -15 -26 -45 -34 -67 l-13 -39 -63 4 c-75 4 -166
45 -272 123 -37 28 -69 49 -71 47 -3 -4 1 -82 25 -459 11 -172 13 -189 41
-243 16 -32 33 -55 37 -53 5 3 12 26 15 51 l7 45 45 0 c53 0 52 6 22 -152
l-22 -118 -41 0 c-38 0 -42 3 -69 52 -32 57 -32 57 -50 -25 -6 -25 -10 -27
-51 -27 -53 0 -52 -8 -21 150 21 104 25 115 47 120 20 5 24 11 22 41 -2 19
-16 268 -33 554 -39 668 -49 827 -54 833 -3 2 -197 8 -433 13 -1410 29 -1908
39 -1976 39 l-77 0 0 -755 c0 -497 3 -755 10 -755 6 0 10 6 10 13 0 10 29 14
121 15 l122 2 -6 -36 c-7 -45 -5 -43 -50 -46 -25 -1 -37 -7 -37 -17 0 -9 -8
-51 -17 -93 l-16 -78 -50 0 c-46 0 -49 1 -44 23 10 36 28 159 25 162 -11 10
-70 7 -92 -5 -20 -10 -29 -11 -38 -2 -16 16 -73 15 -86 -1 -6 -6 -14 -25 -17
-40 -9 -33 8 -57 41 -57 19 0 24 7 30 35 6 34 8 35 51 35 34 0 44 -3 40 -14
-3 -7 -8 -34 -12 -59 -6 -40 -12 -48 -42 -62 -25 -12 -52 -16 -90 -13 -45 4
-60 11 -86 37 -27 27 -32 38 -31 79 0 53 22 97 62 127 20 15 47 21 106 24 l78
3 -7 890 -7 890 168 -7 c93 -3 552 -15 1019 -25z m2280 -30 c-3 -5 -11 -10
-16 -10 -6 0 -7 5 -4 10 3 6 11 10 16 10 6 0 7 -4 4 -10z m-105 -14 c0 -7 7
-19 15 -26 12 -10 13 -16 4 -26 -9 -11 -8 -14 4 -14 9 0 18 -4 21 -8 3 -5 -8
-7 -23 -4 -23 3 -30 11 -35 34 -9 43 -7 58 4 58 6 0 10 -6 10 -14z m-40 -45
c0 -40 -4 -51 -19 -56 -11 -3 -25 -22 -31 -41 -14 -41 -5 -59 9 -20 6 14 15
26 21 26 19 0 22 -29 6 -52 -21 -29 -22 -55 -2 -39 11 10 17 7 30 -10 8 -12
13 -26 10 -30 -2 -4 0 -10 6 -14 14 -9 12 -35 -3 -35 -37 0 -126 143 -141 228
l-6 32 43 -2 c40 -3 43 -1 52 30 14 47 25 39 25 -17z m247 42 c-4 -3 -1 -13 6
-22 11 -14 10 -14 -5 -2 -16 12 -16 31 -1 31 4 0 3 -3 0 -7z m-130 -19 c-3 -3
-12 -4 -19 -1 -8 3 -5 6 6 6 11 1 17 -2 13 -5z m173 -59 c0 -8 -8 -15 -17 -14
-11 0 -13 3 -5 6 6 2 10 9 6 14 -3 5 0 9 5 9 6 0 11 -7 11 -15z m-180 -61 l25
-14 -29 2 c-16 2 -31 9 -34 16 -5 16 7 15 38 -4z m-70 -59 c-14 -16 -40 -20
-40 -6 0 10 17 19 39 20 11 1 11 -2 1 -14z m381 -108 c15 -20 29 -32 31 -26 3
10 14 10 49 0 24 -7 62 -16 84 -21 75 -16 135 -50 166 -93 35 -48 79 -131 79
-149 0 -6 31 -64 69 -127 61 -101 112 -207 111 -229 -1 -17 -40 43 -40 62 0
14 -18 34 -51 59 -51 37 -53 46 -5 27 37 -14 23 15 -15 30 -16 7 -26 16 -24
21 3 4 -5 29 -18 55 -15 30 -27 43 -31 35 -4 -6 -3 -17 2 -24 5 -7 12 -24 16
-38 5 -22 2 -28 -15 -32 -24 -7 -49 1 -49 15 0 5 3 7 8 5 4 -3 8 5 8 16 1 12
5 45 9 72 5 36 3 60 -8 85 l-15 35 -2 -45 c-3 -58 -12 -92 -28 -98 -8 -2 -10
2 -5 14 4 12 3 15 -5 10 -17 -10 -15 7 4 48 19 38 12 106 -10 106 -7 0 -12 10
-12 21 1 12 -4 24 -11 26 -7 3 -9 -3 -6 -18 6 -20 4 -21 -31 -15 -21 4 -44 10
-52 13 -10 4 -12 0 -8 -11 3 -9 10 -13 16 -10 5 3 20 3 34 0 l25 -7 -21 -29
c-14 -20 -30 -30 -47 -30 -15 0 -23 -3 -19 -7 8 -8 13 -9 41 -12 11 -1 14 -10
11 -33 -3 -18 -5 -37 -5 -42 -1 -5 -11 0 -24 12 -13 12 -27 19 -30 15 -8 -8
-36 26 -37 45 0 6 7 12 15 12 8 0 15 5 15 10 0 6 -6 10 -14 10 -9 0 -12 7 -9
20 3 11 0 27 -7 35 -10 13 -9 15 11 16 22 0 23 1 4 9 -30 13 -45 12 -39 -4 3
-7 -2 -30 -10 -50 -15 -37 -15 -37 21 -77 19 -21 41 -38 47 -37 17 4 86 -63
86 -82 0 -13 12 -23 85 -68 33 -20 69 -34 92 -35 12 -1 21 -5 20 -8 -1 -3 11
-17 27 -30 23 -20 30 -36 34 -79 3 -38 2 -51 -7 -46 -6 4 -11 16 -11 26 0 10
-4 22 -10 25 -5 3 -10 16 -10 28 0 12 -5 29 -11 37 -8 12 -9 11 -6 -5 14 -55
17 -95 9 -95 -6 0 -13 12 -16 26 -10 40 -36 73 -52 67 -8 -3 -38 20 -76 61
-34 36 -65 66 -68 66 -3 0 -5 -34 -6 -75 0 -41 3 -72 7 -69 5 3 11 -5 14 -18
29 -128 30 -143 10 -108 l-14 25 -1 -26 c0 -14 6 -31 13 -38 10 -10 9 -11 -3
-6 -8 3 -26 21 -40 40 -14 19 -28 35 -33 35 -15 0 24 -60 46 -71 12 -6 47 -30
77 -53 30 -23 68 -47 84 -54 20 -9 26 -16 18 -24 -16 -16 -70 6 -138 56 -76
56 -97 80 -179 201 -38 55 -73 105 -80 110 -6 6 -15 23 -19 39 -4 17 -22 48
-39 70 -20 25 -27 41 -19 44 9 3 8 8 -3 19 -8 8 -12 19 -9 25 5 7 12 4 21 -7
12 -18 14 -18 41 8 15 15 35 27 43 26 10 0 10 -2 1 -6 -6 -2 -9 -10 -6 -15 4
-6 2 -8 -3 -5 -6 4 -16 0 -23 -8 -15 -18 -7 -19 21 -4 26 13 60 3 52 -17 -3
-7 0 -14 6 -14 6 0 11 5 11 10 0 6 10 10 21 10 19 0 18 4 -16 41 -20 23 -34
47 -31 55 3 8 1 14 -4 14 -6 0 -10 7 -10 15 0 8 -4 15 -9 15 -5 0 -14 15 -20
33 -9 28 -9 30 3 14 9 -11 20 -15 31 -10 17 6 16 7 -4 14 -17 7 -20 14 -16 36
4 22 3 23 -3 8 -9 -19 -9 -19 -21 3 -11 22 -11 22 44 22 42 0 57 -4 62 -16 4
-11 8 -12 13 -4 5 9 17 9 46 1 51 -14 81 -14 68 -1 -17 17 -146 50 -196 50
-46 0 -78 18 -78 43 0 6 -12 24 -27 41 -16 17 -19 24 -9 16 11 -8 32 -32 47
-53z m-3591 22 c0 -12 -8 -23 -20 -26 -11 -3 -18 -9 -15 -13 3 -5 1 -11 -5
-15 -6 -4 -10 9 -10 34 0 37 2 41 25 41 19 0 25 -5 25 -21z m30 -19 c0 -22 -4
-40 -10 -40 -5 0 -10 18 -10 40 0 22 5 40 10 40 6 0 10 -18 10 -40z m100 1 c1
-13 3 -12 15 3 13 17 15 17 15 3 0 -28 -22 -67 -39 -67 -11 0 -12 3 -4 11 12
12 5 52 -8 44 -4 -3 -6 -12 -2 -20 4 -11 -2 -15 -20 -15 -33 0 -45 19 -23 36
13 9 14 13 4 17 -7 3 4 5 25 4 27 0 37 -5 37 -16z m95 8 c4 -6 4 -13 0 -17 -3
-3 -10 0 -15 8 -8 12 -10 11 -10 -7 0 -12 6 -24 13 -26 6 -3 2 -6 -9 -6 -24
-1 -38 31 -21 48 14 14 34 14 42 0z m37 -24 c-2 -14 -8 -25 -13 -25 -10 0 -12
43 -3 53 13 12 21 -3 16 -28z m2007 -14 l34 -18 -44 -15 -45 -15 0 33 c0 39 7
41 55 15z m1198 -14 c-6 -13 -22 -29 -36 -35 -22 -11 -21 -8 9 23 19 19 35 35
36 35 1 0 -3 -10 -9 -23z m-197 -3 c0 -14 -3 -14 -15 -4 -8 7 -15 14 -15 16 0
2 7 4 15 4 8 0 15 -7 15 -16z m238 -10 c12 -4 22 -12 22 -20 0 -10 -6 -11 -30
-3 -16 6 -30 15 -30 20 0 10 7 11 38 3z m-18 -43 c0 -6 -4 -13 -10 -16 -5 -3
-10 1 -10 9 0 9 5 16 10 16 6 0 10 -4 10 -9z m-3525 -28 l7 -28 15 28 c19 38
25 30 11 -16 -13 -42 -33 -48 -42 -13 -3 13 -9 31 -12 40 -3 9 -2 16 4 16 5 0
13 -12 17 -27z m164 -3 c6 0 11 -11 11 -25 0 -31 -19 -33 -21 -2 l-2 22 -4
-22 c-7 -39 -23 -25 -23 20 1 37 2 40 14 25 7 -10 18 -18 25 -18z m3281 26 c0
-2 -7 -7 -16 -10 -8 -3 -12 -2 -9 4 6 10 25 14 25 6z m-3140 -46 c0 -22 -4
-40 -10 -40 -5 0 -10 18 -10 40 0 22 5 40 10 40 6 0 10 -18 10 -40z m2925 11
c-6 -5 -25 10 -25 20 0 5 6 4 14 -3 8 -7 12 -15 11 -17z m-3115 -7 c0 -3 -9
-2 -20 1 -14 4 -20 2 -20 -9 0 -8 8 -17 18 -20 10 -3 7 -4 -8 -3 -28 2 -40 34
-19 48 12 7 49 -5 49 -17z m90 -15 c0 -17 -4 -28 -10 -24 -5 3 -10 17 -10 31
0 13 5 24 10 24 6 0 10 -14 10 -31z m53 24 c-7 -2 -13 -11 -13 -18 0 -7 6 -15
13 -18 6 -2 9 -7 6 -11 -11 -11 -39 5 -39 23 0 22 9 31 29 30 10 0 12 -2 4 -6z
m115 -10 c2 -7 -3 -13 -12 -13 -22 0 -20 -17 2 -24 10 -3 6 -4 -8 -3 -19 2
-26 8 -28 30 -3 25 0 28 19 25 12 -2 24 -9 27 -15z m3122 -7 c0 -7 12 -25 26
-39 21 -22 25 -32 19 -58 -6 -27 -9 -29 -17 -16 -5 10 -6 22 -3 27 3 6 2 10
-4 10 -5 0 -12 14 -16 30 -4 17 -11 30 -16 30 -5 0 -9 7 -9 15 0 8 5 15 10 15
6 0 10 -6 10 -14z m-1195 -12 c40 -17 38 -25 -11 -42 -32 -10 -32 -10 -31 24
1 19 2 34 3 34 1 0 18 -7 39 -16z m1199 -95 c17 -24 39 -55 50 -68 l21 -24
-32 17 c-36 18 -83 74 -83 99 0 8 -5 17 -11 19 -5 2 -7 11 -3 21 6 17 7 17 18
-1 6 -11 24 -39 40 -63z m446 22 c0 -16 -3 -36 -6 -45 -5 -13 -8 -13 -20 -1
-8 7 -14 20 -14 27 0 10 3 9 10 -2 7 -11 10 -7 10 18 0 17 5 32 10 32 6 0 10
-13 10 -29z m-625 9 c3 -5 1 -10 -4 -10 -6 0 -11 5 -11 10 0 6 2 10 4 10 3 0
8 -4 11 -10z m-3320 -42 l8 -23 4 23 c2 12 9 22 14 22 5 0 14 -10 19 -22 l9
-23 7 23 c3 12 11 22 16 22 6 0 7 -7 4 -16 -3 -9 -9 -27 -12 -40 -8 -30 -22
-31 -33 -2 l-8 23 -7 -23 c-4 -12 -11 -22 -16 -22 -8 0 -11 8 -26 63 -8 25 12
21 21 -5z m145 -13 c10 -12 10 -15 -3 -15 -8 0 -18 6 -20 13 -3 6 -6 2 -6 -10
-1 -13 6 -23 17 -26 12 -4 11 -5 -6 -6 -24 -1 -38 20 -28 44 3 8 12 15 19 15
8 0 20 -7 27 -15z m68 -17 c3 -24 0 -28 -22 -28 -16 0 -26 6 -26 15 0 8 7 15
15 15 21 0 19 17 -2 24 -11 3 -7 4 7 3 19 -2 26 -8 28 -29z m70 0 c3 -23 -1
-28 -17 -28 -12 0 -21 -4 -21 -10 0 -5 -4 -10 -10 -10 -5 0 -10 18 -10 41 0
38 1 40 28 37 21 -2 28 -9 30 -30z m80 -6 c-2 -10 -15 -18 -31 -20 -23 -3 -27
0 -27 22 0 13 6 26 13 29 19 7 49 -13 45 -31z m70 1 c2 -13 -1 -23 -7 -23 -6
0 -11 9 -11 20 0 11 -4 20 -10 20 -5 0 -10 -9 -10 -20 0 -11 -4 -20 -10 -20
-5 0 -10 12 -10 26 0 22 4 25 28 22 19 -2 28 -9 30 -25z m3449 5 c-3 -8 -6 -5
-6 6 -1 11 2 17 5 13 3 -3 4 -12 1 -19z m-1557 -13 l24 -13 -38 -16 c-50 -21
-59 -20 -47 1 6 11 6 24 -1 36 -9 17 -7 18 14 12 12 -4 34 -13 48 -20z m950
-15 c8 -5 11 -10 5 -10 -5 0 -17 5 -25 10 -8 5 -10 10 -5 10 6 0 17 -5 25 -10z
m-3278 -87 c11 -27 12 -27 15 -5 3 12 11 22 19 22 8 0 14 -10 15 -22 l0 -23
11 23 c6 12 15 22 20 22 11 0 10 -5 -8 -48 -16 -36 -16 -37 -27 -14 l-11 23
-12 -23 c-13 -23 -13 -23 -28 14 -9 21 -16 42 -16 48 0 18 10 10 22 -17z m238
-23 c0 -22 -4 -40 -10 -40 -5 0 -10 18 -10 40 0 22 5 40 10 40 6 0 10 -18 10
-40z m80 0 c0 -38 -2 -40 -30 -40 -27 0 -30 3 -30 30 0 23 4 30 20 30 11 0 20
5 20 10 0 6 5 10 10 10 6 0 10 -18 10 -40z m-162 -7 c-3 -32 -44 -46 -54 -19
-10 26 4 46 31 46 23 0 26 -4 23 -27z m38 11 c-3 -9 -6 -22 -6 -30 0 -8 -4
-14 -10 -14 -5 0 -10 14 -10 30 0 21 5 30 16 30 11 0 14 -5 10 -16z m2164 -34
c0 -6 -60 -30 -76 -30 -5 0 -9 15 -10 34 l0 34 43 -16 c24 -9 43 -19 43 -22z
m1577 -35 c4 -4 2 -5 -4 -1 -16 9 -16 4 1 -29 9 -18 16 -22 20 -13 3 7 5 4 3
-7 -1 -11 6 -28 15 -37 10 -10 18 -27 18 -37 0 -11 8 -27 17 -37 20 -20 53
-112 46 -130 -3 -9 -14 -8 -44 6 -22 9 -45 22 -50 27 -5 5 -20 68 -32 140 -18
101 -21 130 -11 129 8 -1 17 -6 21 -11z m-802 -108 c15 -54 25 -100 23 -103
-4 -4 -68 195 -68 212 0 27 21 -25 45 -109z m-3102 66 c-7 -2 -13 -20 -13 -39
0 -19 -4 -34 -10 -34 -5 0 -10 15 -10 34 0 19 -6 37 -12 39 -7 3 3 5 22 5 19
0 29 -2 23 -5z m107 -33 c0 -22 -4 -40 -10 -40 -11 0 -14 63 -3 73 11 12 13 8
13 -33z m2950 -4 c0 -6 14 -53 30 -104 28 -83 29 -94 15 -108 -8 -9 -15 -21
-15 -27 0 -7 7 -4 14 5 7 10 16 15 20 11 3 -3 -1 -14 -10 -24 -20 -22 -9 -46
12 -28 8 6 16 10 19 8 2 -3 22 -67 43 -144 36 -125 38 -141 23 -147 -24 -10
-33 -9 -26 2 3 6 1 10 -5 10 -8 0 -10 -9 -6 -25 4 -14 2 -25 -4 -25 -5 0 -10
3 -10 8 0 4 -5 36 -10 71 -8 55 -7 66 7 76 9 7 13 17 9 24 -6 9 -11 7 -21 -6
-7 -10 -17 -15 -21 -10 -4 4 -3 12 4 19 8 8 7 14 -4 25 -10 10 -12 26 -8 52 6
35 3 39 -35 65 -23 16 -41 31 -41 33 0 2 5 1 10 -2 6 -3 10 -2 10 3 0 6 -18
17 -39 26 -22 8 -43 21 -48 29 -4 7 -22 19 -40 26 -34 14 -43 34 -43 99 0 42
4 46 47 45 7 -1 10 3 7 8 -7 12 3 11 27 -1 14 -8 19 -7 19 1 0 6 10 20 22 31
21 18 23 18 35 2 7 -10 13 -23 13 -28z m-2636 -14 c1 -41 -20 -42 -26 -2 -5
32 0 42 15 37 6 -2 11 -17 11 -35z m-344 17 c0 -6 -6 -9 -14 -6 -8 3 -17 0
-20 -8 -3 -8 3 -16 12 -18 12 -3 11 -5 -5 -6 -25 -1 -37 13 -29 34 6 17 56 20
56 4z m99 -6 c0 -11 -3 -13 -6 -5 -7 17 -20 15 -20 -3 0 -8 7 -15 16 -15 10 0
12 -3 5 -10 -15 -15 -44 -1 -44 19 0 23 9 31 32 31 11 0 18 -7 17 -17z m76 7
c10 -16 -5 -50 -21 -50 -8 0 -14 -4 -14 -10 0 -5 -4 -10 -10 -10 -5 0 -10 18
-10 40 0 36 3 40 24 40 14 0 28 -5 31 -10z m73 -17 c-3 -32 -44 -46 -54 -19
-10 26 4 46 31 46 23 0 26 -4 23 -27z m45 16 c-6 -6 -9 -17 -7 -24 3 -7 1 -16
-5 -20 -7 -4 -11 5 -11 24 0 23 5 31 17 31 13 0 14 -3 6 -11z m1933 -15 l39
-17 -40 -18 c-53 -23 -51 -24 -51 16 0 40 1 40 52 19z m1748 -106 c3 -13 5
-34 5 -48 -1 -24 -1 -24 -14 5 -16 35 -19 65 -6 65 5 0 11 -10 15 -22z m-4051
5 c-7 -2 -13 -20 -13 -39 0 -19 -4 -34 -10 -34 -5 0 -10 15 -10 34 0 19 -6 37
-12 39 -7 3 3 5 22 5 19 0 29 -2 23 -5z m271 -23 c13 0 17 -7 14 -27 -2 -23
-8 -28 -30 -29 -27 -1 -28 1 -28 45 1 40 2 44 14 29 7 -10 21 -18 30 -18z m46
-16 c0 -27 -4 -43 -10 -39 -17 11 -11 85 7 85 2 0 3 -21 3 -46z m-277 -4 c-3
-11 0 -20 6 -20 6 0 11 9 11 19 0 11 5 23 10 26 6 4 10 -7 10 -24 0 -26 -4
-31 -25 -31 -14 0 -26 5 -26 10 -1 6 -2 16 -3 23 -3 17 4 28 14 22 4 -3 6 -14
3 -25z m107 -5 c0 -14 -4 -25 -10 -25 -5 0 -10 9 -10 20 0 11 -4 20 -10 20 -5
0 -10 -9 -10 -20 0 -11 -4 -20 -10 -20 -5 0 -10 11 -10 25 0 21 5 25 30 25 25
0 30 -4 30 -25z m65 -4 c0 -25 -22 -35 -45 -21 -16 10 -4 30 18 31 14 0 13 2
-3 10 -18 8 -18 8 5 6 19 -1 25 -8 25 -26z m180 18 c4 -6 -2 -13 -14 -16 -11
-3 -18 -9 -15 -14 3 -5 10 -7 15 -4 5 4 9 1 9 -4 0 -17 -40 -13 -46 4 -14 34
33 65 51 34z m42 4 c-4 -3 -2 -12 4 -19 13 -16 3 -34 -19 -34 -15 0 -15 2 -2
11 11 8 12 12 3 16 -19 7 -16 33 4 33 9 0 13 -3 10 -7z m1874 -12 l42 -19 -38
-16 c-50 -21 -51 -21 -52 19 -1 19 0 35 2 35 2 0 22 -9 46 -19z m1824 -48 c-7
-45 -48 -103 -74 -103 -6 0 -2 9 9 20 13 13 20 33 20 60 0 31 3 38 15 34 11
-5 15 1 15 18 0 27 12 46 18 28 2 -6 1 -32 -3 -57z m-871 41 c9 -23 7 -36 -3
-30 -12 8 -21 46 -11 46 4 0 11 -7 14 -16z m-100 -63 c-7 -7 -12 3 -18 34 l-6
30 14 -30 c8 -16 12 -32 10 -34z m92 -7 c-5 -14 30 -165 50 -219 4 -8 1 -15
-5 -15 -6 0 -11 7 -11 16 0 10 -14 60 -31 113 -21 67 -27 97 -19 99 9 3 8 7
-1 13 -11 7 -10 9 5 9 13 0 16 -5 12 -16z m104 -24 c0 -31 -4 -40 -17 -40 -15
0 -15 2 -4 9 9 6 12 19 8 40 -4 18 -2 31 3 31 6 0 10 -18 10 -40z m352 -5 c-2
-19 -8 -35 -14 -35 -5 0 -7 4 -4 9 4 5 1 11 -5 13 -9 3 -9 9 0 26 17 33 28 27
23 -13z m150 9 c-2 -10 -7 -208 -10 -439 l-7 -420 -28 -3 c-24 -3 -27 0 -25
25 4 43 -12 123 -24 123 -7 0 -9 -25 -5 -75 l5 -75 -38 0 -38 0 -6 73 c-2 39
-5 77 -6 82 -3 23 32 220 40 223 5 2 6 10 3 18 -3 8 -2 30 1 50 6 29 10 33 21
24 12 -10 16 -9 19 1 10 33 14 241 5 274 -16 58 -7 76 16 30 l19 -40 8 40 c4
22 15 52 23 68 9 15 13 32 9 38 -4 7 -1 10 7 7 8 -3 12 -14 11 -24z m-462 -36
c0 -24 4 -28 28 -28 19 0 23 -3 13 -9 -8 -6 -9 -11 -3 -15 6 -4 22 5 35 20 35
37 43 13 10 -28 -16 -18 -31 -34 -34 -36 -4 -2 -3 -18 1 -36 7 -33 7 -34 -20
-26 -18 5 -32 4 -39 -3 -8 -8 -11 -2 -11 20 0 23 6 33 20 38 11 3 20 11 20 17
0 6 -9 8 -20 5 -11 -3 -20 0 -21 6 0 8 -2 8 -6 0 -8 -21 -30 -15 -37 10 -9 35
-7 47 9 47 8 0 15 -6 15 -12 1 -31 20 20 20 52 0 26 3 31 10 20 5 -8 10 -27
10 -42z m-3420 -3 c0 -24 5 -35 15 -35 10 0 15 11 15 35 0 19 5 35 11 35 6 0
9 -16 7 -37 -3 -35 -6 -38 -35 -41 -32 -3 -33 -2 -33 37 0 23 5 41 10 41 6 0
10 -16 10 -35z m150 -5 c0 -22 -4 -40 -10 -40 -5 0 -10 18 -10 40 0 22 5 40
10 40 6 0 10 -18 10 -40z m170 25 c0 -8 7 -15 16 -15 13 0 14 -3 5 -14 -8 -10
-9 -16 -1 -21 17 -11 11 -22 -12 -20 -19 1 -23 8 -26 43 -2 25 1 42 7 42 6 0
11 -7 11 -15z m2694 -40 c25 -23 46 -48 46 -55 0 -7 11 -33 24 -59 44 -88 60
-131 46 -131 -6 0 -10 5 -10 11 0 22 -71 157 -92 175 -13 10 -18 12 -12 4 5
-8 7 -31 4 -50 -5 -27 -8 -31 -14 -17 -10 21 -26 22 -26 2 0 -21 -20 -19 -21
3 -1 9 -5 4 -9 -13 l-7 -30 -11 27 c-6 14 -16 29 -21 33 -21 13 -10 -13 25
-57 35 -46 60 -61 122 -73 21 -4 36 -15 42 -29 9 -24 33 -48 46 -45 5 1 16 1
24 0 13 -1 13 -2 0 -11 -13 -9 -13 -12 2 -21 36 -20 39 -44 11 -70 l-26 -24
19 30 c14 23 15 27 3 18 -9 -7 -20 -9 -24 -5 -5 4 -5 1 -1 -5 4 -8 2 -13 -6
-13 -7 0 -33 -30 -57 -67 -36 -55 -45 -63 -53 -50 -11 20 -41 22 -56 4 -6 -7
-18 -46 -28 -87 -9 -41 -23 -88 -31 -103 -45 -88 -200 -89 -233 -2 -6 15 -3
56 8 114 l17 91 47 0 c55 0 55 1 32 -96 -17 -77 -13 -97 18 -92 34 5 51 81 47
203 0 11 6 76 15 145 9 68 16 159 16 202 0 42 5 80 10 83 6 3 10 25 10 49 0
77 30 80 104 11z m-2894 0 c0 -14 -4 -25 -10 -25 -5 0 -10 9 -10 20 0 11 -4
20 -10 20 -5 0 -10 -9 -10 -20 0 -11 -4 -20 -10 -20 -5 0 -10 11 -10 25 0 21
5 25 30 25 25 0 30 -4 30 -25z m107 9 c8 -21 -19 -46 -40 -38 -9 3 -17 17 -17
30 0 19 5 24 25 24 14 0 28 -7 32 -16z m46 9 c-7 -2 -13 -11 -13 -18 0 -7 6
-15 13 -18 6 -2 9 -7 6 -11 -11 -11 -39 5 -39 23 0 22 9 31 29 30 10 0 12 -2
4 -6z m119 0 c-10 -4 -10 -8 -1 -19 17 -21 -5 -44 -23 -25 -10 11 -10 13 0 7
14 -8 17 10 2 19 -18 11 -11 25 13 24 12 0 16 -3 9 -6z m1943 -7 c19 -8 35
-17 35 -20 0 -5 -66 -36 -75 -36 -2 0 -3 16 -2 35 1 19 2 35 4 35 2 0 19 -7
38 -14z m909 -61 c44 -153 63 -226 56 -218 -9 10 -90 265 -90 284 0 26 17 -7
34 -66z m362 -23 c-8 -8 -12 -1 -20 33 l-6 30 16 -28 c8 -16 13 -31 10 -35z
m164 7 c0 -11 -5 -16 -14 -13 -16 6 -37 49 -29 58 10 10 43 -25 43 -45z m-250
11 c0 -5 -5 -10 -11 -10 -5 0 -7 5 -4 10 3 6 8 10 11 10 2 0 4 -4 4 -10z
m-136 -36 c3 -8 2 -12 -4 -9 -6 3 -10 10 -10 16 0 14 7 11 14 -7z m-3334 -19
c15 -18 6 -61 -16 -69 -24 -9 -54 12 -54 37 0 43 44 63 70 32z m110 -30 c0
-19 -4 -37 -10 -40 -6 -4 -10 12 -10 40 0 28 4 44 10 40 6 -3 10 -21 10 -40z
m248 26 c-2 -5 6 -16 16 -24 24 -17 15 -47 -14 -47 -11 0 -20 4 -20 10 0 5 7
7 15 4 21 -9 19 10 -5 31 -11 10 -17 22 -14 26 7 12 25 11 22 0z m2955 -11 c3
-11 1 -20 -4 -20 -5 0 -9 9 -9 20 0 11 2 20 4 20 2 0 6 -9 9 -20z m-983 -31
c0 -3 -18 -13 -40 -22 -39 -15 -40 -15 -38 6 0 12 -3 30 -7 39 -7 17 -5 17 39
1 25 -10 46 -20 46 -24z m-2255 10 c4 -12 2 -26 -4 -32 -8 -8 -11 -4 -11 16 0
15 -4 27 -10 27 -5 0 -10 -9 -10 -19 0 -11 -4 -23 -10 -26 -6 -4 -10 7 -10 24
0 26 4 31 24 31 16 0 27 -7 31 -21z m65 -10 c0 -17 -4 -28 -10 -24 -5 3 -10
17 -10 31 0 13 5 24 10 24 6 0 10 -14 10 -31z m80 1 c0 -16 -4 -30 -10 -30 -5
0 -10 11 -10 25 0 14 -4 25 -10 25 -5 0 -10 -11 -10 -25 0 -14 -4 -25 -10 -25
-5 0 -10 14 -10 30 0 27 3 30 30 30 27 0 30 -3 30 -30z m68 13 c2 -8 -5 -13
-18 -13 -12 0 -18 -4 -15 -10 4 -6 11 -8 16 -5 5 4 9 1 9 -4 0 -17 -40 -13
-46 4 -10 25 4 47 28 43 12 -2 23 -9 26 -15z m170 0 c2 -8 -5 -13 -18 -13 -12
0 -18 -4 -15 -10 4 -6 11 -8 16 -5 5 4 9 1 9 -4 0 -6 -9 -11 -19 -11 -21 0
-37 32 -26 50 9 14 47 9 53 -7z m72 6 c0 -8 6 -7 17 2 15 13 16 11 10 -11 -4
-14 -7 -28 -7 -32 0 -18 -21 -6 -30 17 -5 14 -14 25 -20 25 -5 0 -10 -11 -10
-25 0 -14 -4 -25 -10 -25 -5 0 -10 14 -10 30 0 27 3 30 30 30 17 0 30 -5 30
-11z m66 -25 c2 -14 -2 -24 -7 -22 -6 2 -10 7 -10 11 1 4 1 17 1 29 0 28 13
15 16 -18z m47 29 c-19 -7 -16 -30 5 -42 15 -9 14 -10 -6 -11 -24 0 -38 21
-28 45 3 8 13 15 23 14 11 0 13 -3 6 -6z m85 -10 c2 -8 -6 -13 -20 -13 -22 -1
-22 -1 -4 -15 19 -15 19 -15 -2 -15 -25 0 -38 21 -28 46 7 18 47 15 54 -3z
m37 8 c-3 -5 -1 -12 5 -16 19 -12 10 -35 -12 -35 -17 0 -19 3 -9 9 9 6 10 11
2 15 -16 11 -13 36 5 36 8 0 13 -4 9 -9z m2745 -13 c0 -5 -11 -8 -24 -8 -14 0
-27 3 -29 8 -3 4 8 7 24 7 16 0 29 -3 29 -7z m-510 -53 c0 -5 -5 -3 -10 5 -5
8 -10 20 -10 25 0 6 5 3 10 -5 5 -8 10 -19 10 -25z m370 0 c0 -5 -5 -3 -10 5
-5 8 -10 20 -10 25 0 6 5 3 10 -5 5 -8 10 -19 10 -25z m-66 -7 c7 -29 8 -53 1
-46 -11 10 -23 68 -15 68 4 0 10 -10 14 -22z m-3303 -59 c8 -16 8 -28 0 -45
-18 -41 -71 -25 -71 21 0 44 50 61 71 24z m109 -30 c0 -21 -4 -39 -10 -39 -5
0 -10 21 -10 46 0 27 4 43 10 39 6 -3 10 -24 10 -46z m248 19 l11 -23 7 23 c3
12 11 22 16 22 6 0 7 -7 4 -16 -3 -9 -9 -27 -12 -40 -8 -31 -30 -31 -38 0 -3
13 -9 31 -12 40 -9 25 12 19 24 -6z m142 13 c0 -5 9 -11 20 -14 14 -3 20 -14
20 -31 0 -14 -4 -26 -10 -26 -5 0 -10 11 -10 25 0 14 -4 25 -10 25 -5 0 -10
-11 -10 -25 0 -14 -4 -25 -10 -25 -5 0 -10 18 -10 40 0 22 5 40 10 40 6 0 10
-4 10 -9z m160 7 c11 -73 11 -80 -2 -76 -16 5 -24 78 -9 78 6 0 11 -1 11 -2z
m168 -5 c-22 -5 -23 -22 -3 -29 8 -4 15 -15 15 -25 0 -14 -7 -19 -27 -18 -17
1 -21 3 -10 6 21 5 22 22 2 29 -8 4 -15 15 -15 25 0 14 7 19 28 18 16 -1 20
-3 10 -6z m2272 -9 c0 -8 -4 -12 -10 -9 -5 3 -10 10 -10 16 0 5 5 9 10 9 6 0
10 -7 10 -16z m-800 -10 c22 -9 40 -19 40 -23 0 -4 -19 -14 -43 -23 l-42 -15
0 38 c0 22 1 39 2 39 1 0 21 -7 43 -16z m934 -54 c4 -24 3 -29 -3 -15 -8 19
-9 19 -21 -7 -10 -22 -16 -25 -30 -18 -33 18 -32 42 2 77 36 37 39 35 52 -37z
m-3156 28 c2 -16 -1 -28 -7 -28 -6 0 -11 11 -11 25 0 14 -4 25 -10 25 -5 0
-10 -11 -10 -25 0 -14 -4 -25 -10 -25 -5 0 -10 14 -10 31 0 27 3 30 28 27 21
-2 28 -9 30 -30z m72 2 c0 -16 -4 -30 -9 -30 -5 0 -11 14 -13 30 -3 20 0 30 9
30 8 0 13 -12 13 -30z m70 0 c0 -16 -4 -30 -10 -30 -5 0 -10 11 -10 25 0 14
-4 25 -10 25 -5 0 -10 -11 -10 -25 0 -14 -4 -25 -10 -25 -5 0 -10 14 -10 30 0
27 3 30 30 30 27 0 30 -3 30 -30z m68 13 c2 -8 -5 -13 -18 -13 -12 0 -18 -4
-15 -10 4 -6 11 -8 16 -5 5 4 9 1 9 -4 0 -17 -40 -13 -46 4 -10 25 4 47 28 43
12 -2 23 -9 26 -15z m180 0 c2 -8 -6 -13 -20 -13 -22 -1 -22 -1 -4 -15 19 -15
19 -15 -2 -15 -25 0 -38 21 -28 46 7 18 47 15 54 -3z m102 -13 c0 -16 -4 -30
-10 -30 -5 0 -10 14 -10 30 0 17 5 30 10 30 6 0 10 -13 10 -30z m45 13 c-16
-16 -16 -17 1 -30 17 -12 17 -13 -3 -13 -12 0 -25 5 -28 10 -11 18 6 50 26 50
19 0 19 -1 4 -17z m123 0 c2 -8 -6 -13 -20 -13 -22 -1 -22 -1 -4 -15 19 -15
19 -15 -2 -15 -25 0 -38 21 -28 46 7 18 47 15 54 -3z m177 -3 c8 -26 -1 -40
-26 -40 -11 0 -17 -4 -14 -10 3 -5 -1 -10 -9 -10 -12 0 -16 10 -16 40 0 38 2
40 29 40 21 0 32 -6 36 -20z m92 7 c6 -4 14 -1 17 5 5 10 7 10 12 0 5 -10 9
-10 21 0 13 10 14 8 11 -17 -2 -25 -8 -30 -33 -32 -16 -1 -33 3 -37 10 -6 9
-8 9 -8 0 0 -8 -13 -13 -30 -13 -32 0 -33 2 -24 37 5 17 12 22 33 20 15 -2 32
-6 38 -10z m131 -19 c2 -16 -1 -28 -7 -28 -6 0 -11 9 -11 20 0 11 -4 20 -10
20 -5 0 -10 -9 -10 -20 0 -11 -4 -20 -10 -20 -5 0 -10 14 -10 31 0 27 3 30 28
27 21 -2 28 -9 30 -30z m2131 -28 c0 -23 -1 -23 -9 -5 -5 11 -9 29 -9 40 -1
17 1 17 9 5 5 -8 9 -26 9 -40z m87 -123 c39 -128 50 -179 35 -157 -9 13 -11
12 -12 -5 0 -16 -55 132 -95 258 -5 15 -1 18 16 15 19 -2 28 -19 56 -111z
m-200 27 c-19 -19 -21 -11 -4 16 7 11 14 16 16 10 2 -5 -4 -17 -12 -26z
m-3150 1 c11 -43 -34 -73 -64 -43 -13 13 -16 50 -5 61 3 4 19 7 34 7 22 0 30
-6 35 -25z m104 -15 c0 -22 -4 -40 -10 -40 -5 0 -10 18 -10 40 0 22 5 40 10
40 6 0 10 -18 10 -40z m284 31 c9 -14 -4 -41 -20 -41 -8 0 -14 -7 -14 -15 0
-8 -4 -15 -10 -15 -5 0 -10 18 -10 40 0 36 3 40 24 40 14 0 27 -4 30 -9z m200
-15 c27 -1 52 -26 27 -26 -6 0 -11 5 -11 11 0 5 -4 7 -10 4 -16 -10 -12 -33 8
-38 13 -4 12 -5 -5 -6 -16 -1 -24 6 -29 24 -3 14 -11 25 -16 25 -6 0 -8 -11
-6 -25 3 -14 1 -25 -3 -25 -5 0 -9 6 -9 13 0 6 -3 23 -7 36 -5 21 -4 23 13 17
10 -5 32 -9 48 -10z m157 4 c5 0 9 -13 9 -30 0 -16 -5 -30 -11 -30 -5 0 -8 3
-6 8 3 4 1 16 -4 27 -7 17 -8 17 -8 -7 -1 -37 -18 -36 -23 2 -5 34 0 43 20 35
7 -3 18 -5 23 -5z m1564 -9 l40 -18 -39 -17 c-51 -21 -51 -21 -52 19 -1 40 -2
39 51 16z m-2239 -6 c4 -8 3 -23 -1 -32 -7 -16 -8 -16 -13 2 -7 34 -22 42 -22
12 0 -15 -4 -27 -10 -27 -5 0 -10 14 -10 30 0 25 4 30 25 30 14 0 28 -7 31
-15z m74 -9 c0 -14 -4 -28 -10 -31 -6 -4 -10 7 -10 24 0 17 5 31 10 31 6 0 10
-11 10 -24z m68 -8 c2 -16 -1 -28 -7 -28 -6 0 -11 12 -11 26 0 14 -4 23 -10
19 -5 -3 -10 -16 -10 -28 0 -18 -2 -19 -10 -7 -5 8 -10 23 -10 33 0 14 6 18
28 15 21 -2 28 -9 30 -30z m67 21 c4 -6 4 -13 0 -17 -3 -3 -10 -1 -14 7 -6 10
-10 9 -15 -4 -8 -23 -8 -23 12 -28 13 -4 12 -5 -4 -6 -24 -1 -37 20 -28 44 7
17 40 20 49 4z m147 -19 c-2 -16 -8 -30 -13 -30 -5 0 -9 14 -9 30 0 18 5 30
13 30 9 0 12 -10 9 -30z m82 15 c9 -25 -5 -45 -30 -45 -14 0 -27 7 -30 15 -10
25 4 45 30 45 13 0 26 -7 30 -15z m166 5 c0 -5 -4 -10 -10 -10 -14 0 -12 -27
3 -33 7 -3 5 -6 -6 -6 -20 -1 -32 22 -23 44 6 17 36 21 36 5z m159 -4 c17 -20
3 -46 -24 -46 -29 0 -38 13 -30 40 7 23 37 26 54 6z m68 -21 l3 -30 -12 25
c-11 25 -11 25 -15 3 -6 -34 -23 -28 -23 8 0 26 3 30 23 27 16 -2 23 -10 24
-33z m2333 -6 c0 -8 -17 -33 -38 -55 -82 -86 -80 -79 -38 -119 21 -19 41 -35
46 -35 5 0 10 -8 12 -17 3 -14 11 -7 36 26 20 27 33 38 36 30 2 -8 14 -43 25
-78 12 -36 19 -67 16 -69 -3 -3 -60 0 -128 6 -133 13 -204 32 -198 53 2 8 6
34 8 59 3 25 10 51 16 58 6 8 6 12 -1 12 -5 0 -12 7 -16 15 -4 11 4 8 24 -7
28 -20 30 -27 32 -92 l2 -71 3 60 c4 64 11 85 57 155 44 69 88 112 98 97 4 -6
8 -19 8 -28z m-1898 -55 c32 -16 45 -38 56 -91 9 -38 9 -37 21 36 l13 73 89
-4 c104 -5 136 -22 157 -83 24 -72 -22 -153 -99 -175 -18 -6 -72 -10 -118 -10
-66 0 -82 3 -78 14 3 7 8 35 12 62 6 48 6 48 -8 19 -39 -82 -135 -117 -222
-81 -37 16 -55 43 -65 96 -6 32 -7 29 -19 -37 l-13 -73 -45 0 -46 0 7 43 6 42
-28 -32 c-38 -44 -63 -43 -83 5 l-16 37 -9 -45 c-9 -45 -10 -45 -55 -48 l-45
-3 25 136 25 135 40 0 c41 0 41 0 64 -60 13 -33 27 -60 31 -60 3 0 27 27 51
60 43 57 47 60 88 60 37 0 43 -3 38 -17 -3 -10 -8 -36 -11 -58 l-6 -40 21 37
c43 78 139 105 222 62z m-1030 -94 c14 -58 27 -117 27 -132 1 -26 -1 -28 -43
-28 -39 0 -45 3 -50 26 -6 22 -11 25 -44 23 -25 -1 -44 -10 -58 -26 -17 -20
-28 -24 -67 -21 l-47 3 83 133 82 132 45 -2 45 -3 27 -105z m368 93 c-1 -53
-10 -63 -64 -64 l-51 -1 40 -12 c114 -34 57 -176 -71 -176 -39 0 -104 17 -104
26 0 3 8 19 17 37 9 18 16 36 15 40 -1 5 7 44 19 88 l22 79 89 0 c77 0 88 -2
88 -17z m1243 -45 c12 -32 24 -58 28 -58 4 0 29 27 54 60 43 55 49 60 86 60
25 0 39 -5 39 -13 0 -11 -25 -140 -46 -234 -4 -20 -11 -23 -50 -23 -38 0 -45
3 -41 18 3 9 8 31 12 47 l6 30 -31 -38 c-17 -20 -39 -37 -49 -37 -10 0 -25 16
-36 38 l-19 37 -9 -47 -9 -48 -44 0 c-24 0 -44 4 -44 9 0 8 35 191 45 239 5
20 11 23 47 20 40 -3 41 -4 61 -60z m447 53 c0 -5 -3 -23 -6 -40 -6 -31 -7
-31 -70 -31 -36 0 -64 -4 -64 -10 0 -5 25 -10 56 -10 54 0 56 -1 50 -22 -3
-13 -6 -29 -6 -35 0 -9 -18 -13 -54 -13 -30 0 -58 -4 -61 -10 -4 -6 18 -10 60
-10 l65 0 -6 -27 c-3 -16 -7 -34 -10 -40 -2 -9 -33 -13 -109 -13 -77 0 -105 3
-105 13 0 6 10 67 22 135 l22 122 108 0 c59 0 108 -4 108 -9z m1184 -100 c3
-5 -1 -11 -9 -14 -9 -4 -12 -1 -8 9 6 16 10 17 17 5z m-442 -166 c37 -9 93
-18 123 -20 31 -1 59 -5 62 -9 3 -3 1 -18 -6 -33 -6 -15 -22 -84 -36 -153 -14
-69 -27 -135 -30 -148 -5 -19 -12 -22 -58 -22 l-52 0 -39 65 c-21 36 -42 65
-46 65 -4 0 -10 -23 -14 -50 -11 -79 -11 -80 -77 -80 -40 0 -59 4 -59 13 0 6
14 84 32 171 32 152 34 160 61 170 15 6 27 18 27 27 0 18 17 29 35 23 6 -2 40
-10 77 -19z m-811 -36 c50 -17 53 -23 29 -69 -18 -36 -25 -41 -43 -35 -33 12
-107 11 -107 0 -1 -5 22 -16 49 -23 91 -26 118 -71 87 -146 -27 -65 -166 -98
-267 -65 -51 17 -53 24 -28 69 19 33 27 40 44 35 11 -4 47 -9 80 -12 71 -6 66
6 -12 32 -89 28 -115 90 -68 162 35 53 154 79 236 52z m509 -12 c76 -40 102
-134 61 -222 -35 -76 -102 -115 -198 -115 -110 0 -173 58 -173 157 0 59 23
114 63 151 58 54 174 68 247 29z m-2880 1 c0 -7 -3 -30 -6 -50 l-7 -38 -83 0
c-84 0 -84 0 -84 -26 0 -25 1 -26 65 -22 71 3 71 3 59 -60 -6 -31 -7 -31 -78
-34 l-71 -3 -9 -53 -9 -52 -63 0 c-35 0 -64 2 -64 4 0 8 61 312 66 329 5 15
21 17 145 17 105 0 139 -3 139 -12z m232 2 c20 -6 49 -25 63 -42 24 -28 27
-39 22 -82 -4 -42 -10 -55 -42 -84 l-38 -35 22 -44 c11 -24 21 -46 21 -48 0
-3 -28 -5 -62 -5 -62 0 -63 1 -83 37 -28 51 -43 53 -51 4 l-7 -41 -63 0 c-35
0 -64 2 -64 3 0 5 59 297 65 325 5 21 10 22 93 22 48 0 104 -5 124 -10z m413
-32 c-4 -24 -9 -46 -12 -50 -2 -5 -40 -8 -84 -8 -64 0 -79 -3 -79 -15 0 -12
15 -15 71 -15 62 0 70 -2 65 -17 -3 -10 -8 -30 -12 -45 -6 -27 -8 -28 -80 -28
-59 0 -74 -3 -74 -15 0 -12 15 -15 79 -15 44 0 82 -3 84 -7 2 -5 0 -27 -5 -50
l-9 -43 -145 0 c-111 0 -144 3 -144 13 0 15 58 306 65 325 3 9 42 12 146 12
l141 0 -7 -42z m317 37 c3 -3 1 -26 -5 -50 l-10 -45 -84 0 c-67 0 -83 -3 -83
-15 0 -12 15 -15 71 -15 69 0 71 -1 65 -22 -3 -13 -6 -33 -6 -45 0 -22 -4 -23
-75 -23 -60 0 -75 -3 -75 -15 0 -12 16 -15 81 -15 l81 0 -7 -42 c-4 -24 -9
-46 -12 -50 -2 -5 -69 -8 -149 -8 -134 0 -145 1 -140 18 2 9 16 78 31 152 14
74 28 145 31 158 4 22 7 22 143 22 76 0 140 -2 143 -5z m274 -85 c10 -49 21
-90 25 -90 3 0 18 21 32 48 15 26 40 65 55 87 l28 40 197 3 c219 3 206 8 191
-67 l-6 -31 -84 0 c-68 0 -84 -3 -84 -15 0 -12 14 -15 70 -15 39 0 70 -3 70
-7 0 -5 -5 -25 -11 -45 l-10 -38 -68 0 c-52 0 -70 -4 -75 -15 -4 -13 8 -15 80
-15 l86 0 -7 -33 c-15 -72 -2 -67 -161 -67 -79 0 -144 3 -144 8 0 4 13 70 29
147 16 77 28 141 26 143 -2 2 -9 -7 -15 -20 -7 -12 -49 -81 -93 -151 l-80
-128 -61 3 -61 3 -32 140 c-17 77 -34 155 -38 173 l-6 32 64 0 65 0 18 -90z
m778 79 c63 -17 86 -48 86 -114 0 -51 -3 -58 -39 -93 l-40 -38 25 -43 c13 -24
24 -45 24 -47 0 -2 -29 -4 -64 -4 l-65 0 -22 40 c-25 45 -49 52 -49 16 0 -49
-8 -56 -71 -56 -48 0 -59 3 -59 16 0 9 14 88 31 175 l32 159 86 0 c47 0 103
-5 125 -11z m566 -1 c0 -7 -14 -86 -32 -175 l-32 -163 -64 0 c-61 0 -64 1 -59
23 3 12 18 85 32 162 15 77 29 146 31 153 2 8 24 12 64 12 41 0 60 -4 60 -12z
m1042 -6 c-7 -2 -12 -10 -12 -18 0 -11 -10 -14 -37 -12 -50 4 -52 31 -3 38 36
6 75 0 52 -8z m252 -13 c-3 -5 -29 -8 -57 -8 -29 1 -42 4 -29 6 12 2 22 8 22
12 0 4 16 5 35 3 19 -2 32 -8 29 -13z"/>
<path d="M320 2415 l0 -65 88 0 c80 0 1096 -22 1587 -34 116 -3 344 -9 508
-12 l297 -7 0 61 0 60 -142 6 c-79 3 -255 8 -393 11 -137 3 -344 8 -460 11
-538 13 -1404 34 -1442 34 l-43 0 0 -65z m443 23 c3 -10 8 -9 22 2 17 14 17
14 4 -7 -11 -18 -11 -25 -1 -35 18 -18 14 -32 -5 -17 -13 11 -17 11 -20 1 -8
-23 -23 -1 -23 34 0 33 14 47 23 22z m157 -34 c0 -31 -3 -34 -29 -34 -17 0
-33 5 -36 10 -11 18 6 50 26 50 10 0 19 5 19 11 0 5 5 7 10 4 6 -3 10 -22 10
-41z m70 0 c0 -31 -2 -34 -31 -34 -27 0 -30 3 -27 28 2 19 8 27 21 26 9 -1 17
5 17 13 0 8 5 11 10 8 6 -3 10 -22 10 -41z m200 26 c0 -5 -4 -10 -10 -10 -5 0
-10 5 -10 10 0 6 5 10 10 10 6 0 10 -4 10 -10z m125 -10 c3 -11 10 -20 15 -20
4 0 10 9 13 20 9 35 27 22 27 -20 0 -38 -19 -58 -21 -22 -1 16 -2 16 -6 0 -5
-21 -23 -24 -24 -5 0 10 -2 10 -6 0 -10 -27 -23 -11 -23 27 0 42 14 54 25 20z
m-475 -20 c0 -16 -4 -30 -10 -30 -5 0 -10 14 -10 30 0 17 5 30 10 30 6 0 10
-13 10 -30z m680 -6 c0 -33 -2 -35 -27 -32 -35 4 -48 48 -14 48 12 0 21 5 21
10 0 6 5 10 10 10 6 0 10 -16 10 -36z m234 14 l7 -23 11 23 c6 12 16 21 22 19
14 -5 21 -77 7 -77 -6 0 -11 8 -11 18 -1 16 -1 16 -11 -1 -10 -18 -11 -18 -25
0 -13 17 -13 17 -14 0 0 -34 -20 -6 -20 29 0 39 24 47 34 12z m-734 -13 c0
-14 -4 -25 -10 -25 -5 0 -10 11 -10 25 0 14 5 25 10 25 6 0 10 -11 10 -25z
m74 9 c9 -22 -1 -34 -30 -34 -19 0 -24 5 -24 25 0 20 5 25 24 25 13 0 27 -7
30 -16z m66 -16 c0 -34 -14 -29 -23 7 -4 18 -5 18 -6 -2 -1 -31 -21 -29 -21 2
0 20 5 25 25 25 21 0 25 -5 25 -32z m67 25 c-4 -3 -2 -12 4 -19 6 -7 8 -18 4
-24 -8 -13 -35 -13 -35 1 0 5 5 7 10 4 6 -3 10 -1 10 4 0 6 -4 11 -10 11 -5 0
-10 7 -10 15 0 8 8 15 17 15 9 0 13 -3 10 -7z m447 -31 c1 -42 -18 -35 -22 7
-2 23 0 32 9 29 7 -2 13 -18 13 -36z m481 -2 c0 -28 -4 -35 -20 -35 -16 0 -21
8 -23 38 -3 35 -1 38 20 35 19 -2 23 -9 23 -38z m93 -3 c3 -35 1 -38 -20 -35
-24 3 -35 34 -24 64 12 30 41 11 44 -29z m90 -3 c0 -30 -3 -34 -26 -33 -17 1
-21 3 -9 6 20 5 23 23 5 24 -10 0 -10 2 0 6 17 7 15 23 -4 23 -8 0 -13 4 -10
9 3 5 15 7 25 4 14 -3 19 -14 19 -39z m-893 11 c0 -31 -49 -28 -53 3 -3 20 0
23 25 20 20 -2 28 -8 28 -23z m135 10 c0 -8 -8 -15 -17 -16 -15 0 -15 -2 2 -9
19 -8 19 -9 -2 -9 -25 -1 -37 13 -29 34 7 20 46 19 46 0z m47 8 c-4 -3 -2 -13
5 -20 9 -11 9 -17 -3 -24 -22 -14 -26 -11 -27 21 0 21 4 30 15 30 9 0 13 -3
10 -7z m249 -14 c4 -8 0 -9 -15 -4 -15 4 -21 2 -21 -9 0 -8 8 -17 18 -19 13
-4 12 -5 -5 -6 -25 -1 -37 13 -29 34 6 18 42 20 52 4z m64 -14 c0 -31 -19 -33
-21 -2 l-2 22 -4 -22 c-6 -31 -23 -29 -23 2 0 20 5 25 25 25 20 0 25 -5 25
-25z m30 5 c0 -28 20 -25 21 3 0 21 1 21 9 2 14 -32 12 -35 -20 -35 -25 0 -30
4 -30 25 0 14 5 25 10 25 6 0 10 -9 10 -20z m93 8 c4 -10 8 -9 16 2 9 13 11
12 11 -5 0 -11 -4 -26 -9 -34 -7 -11 -13 -7 -25 18 -9 17 -12 31 -7 31 5 0 12
-6 14 -12z m122 -38 c3 -5 1 -10 -4 -10 -6 0 -11 5 -11 10 0 6 2 10 4 10 3 0
8 -4 11 -10z"/>
<path d="M875 2410 c-4 -6 -3 -16 3 -22 6 -6 12 -6 17 2 4 6 3 16 -3 22 -6 6
-12 6 -17 -2z"/>
<path d="M947 2404 c-8 -8 1 -24 14 -24 5 0 9 7 9 15 0 15 -12 20 -23 9z"/>
<path d="M1480 2385 c0 -8 5 -15 10 -15 6 0 10 7 10 15 0 8 -4 15 -10 15 -5 0
-10 -7 -10 -15z"/>
<path d="M1052 2398 c6 -18 28 -21 28 -4 0 9 -7 16 -16 16 -9 0 -14 -5 -12
-12z"/>
<path d="M2126 2392 c-2 -4 -1 -14 5 -22 7 -12 9 -10 9 8 0 23 -5 28 -14 14z"/>
<path d="M1410 2385 c0 -8 5 -15 10 -15 6 0 10 7 10 15 0 8 -4 15 -10 15 -5 0
-10 -7 -10 -15z"/>
<path d="M396 2304 c-22 -21 -20 -40 5 -57 26 -19 54 -12 56 14 1 14 -4 19
-20 18 -12 0 -16 -3 -9 -6 16 -6 15 -23 -2 -23 -19 0 -29 29 -15 46 6 7 17 10
25 7 8 -3 14 0 14 6 0 16 -36 13 -54 -5z"/>
<path d="M480 2291 c0 -5 6 -12 13 -14 7 -3 4 -6 -6 -6 -27 -1 -17 -35 11 -39
18 -3 22 1 22 26 0 18 -6 32 -16 36 -21 8 -24 8 -24 -3z"/>
<path d="M530 2260 c0 -38 17 -39 23 -2 l4 27 2 -27 c0 -16 5 -28 10 -28 5 0
12 12 14 28 l4 27 2 -27 c2 -38 21 -36 21 2 0 28 -2 30 -40 30 -38 0 -40 -2
-40 -30z"/>
<path d="M640 2275 c-15 -18 2 -45 29 -44 10 0 11 2 4 6 -18 7 -16 23 3 23 19
0 13 24 -8 28 -8 2 -21 -4 -28 -13z"/>
<path d="M2644 2225 c-1 -40 -2 -39 51 -16 l40 18 -39 17 c-51 21 -51 21 -52
-19z"/>
<path d="M3520 2027 c-12 -21 -12 -21 6 -7 10 8 20 15 22 16 2 1 -1 4 -5 7 -5
3 -15 -4 -23 -16z"/>
<path d="M3225 1888 c-4 -11 6 -34 31 -67 45 -60 57 -61 19 -1 -14 23 -30 51
-35 63 -7 19 -9 20 -15 5z"/>
<path d="M3136 1678 c19 -31 99 -128 106 -128 16 0 7 32 -15 53 -13 12 -26 29
-29 37 -3 8 -20 23 -38 34 -24 13 -30 15 -24 4z"/>
<path d="M3358 1673 c7 -3 16 -2 19 1 4 3 -2 6 -13 5 -11 0 -14 -3 -6 -6z"/>
<path d="M3005 1590 c3 -5 16 -10 28 -9 21 0 21 1 2 9 -28 12 -37 12 -30 0z"/>
<path d="M3895 1559 c18 -5 33 -5 39 1 7 7 -4 10 -29 9 -40 -1 -40 -1 -10 -10z"/>
<path d="M3096 1480 c-11 -3 -15 -9 -10 -13 10 -6 42 9 34 16 -3 3 -14 1 -24
-3z"/>
<path d="M3120 1440 c-8 -5 -10 -10 -5 -10 6 0 17 5 25 10 8 5 11 10 5 10 -5
0 -17 -5 -25 -10z"/>
<path d="M3820 1389 c0 -5 5 -7 10 -4 6 3 10 8 10 11 0 2 -4 4 -10 4 -5 0 -10
-5 -10 -11z"/>
<path d="M3080 1340 c-33 -14 -39 -19 -22 -19 23 -1 122 28 122 35 0 10 -60 1
-100 -16z"/>
<path d="M3195 1301 c-3 -11 -14 -22 -23 -24 -13 -4 -12 -5 4 -6 14 -1 24 6
27 21 8 28 1 36 -8 9z"/>
<path d="M4235 1990 c-3 -5 -1 -10 4 -10 6 0 11 5 11 10 0 6 -2 10 -4 10 -3 0
-8 -4 -11 -10z"/>
<path d="M4190 1746 c0 -13 -5 -26 -11 -28 -5 -2 8 -23 30 -47 23 -25 41 -51
41 -60 0 -13 2 -13 9 -2 5 7 8 40 7 73 -1 53 -4 63 -26 76 l-25 16 23 -26 c19
-21 22 -31 15 -58 l-8 -32 -25 20 c-19 15 -24 28 -22 56 2 20 0 36 -3 36 -3 0
-5 -11 -5 -24z"/>
<path d="M4291 1464 c0 -11 3 -14 6 -6 3 7 2 16 -1 19 -3 4 -6 -2 -5 -13z"/>
<path d="M403 2145 c0 -8 4 -15 9 -15 4 0 8 7 8 15 0 8 -4 15 -8 15 -5 0 -9
-7 -9 -15z"/>
<path d="M650 1825 c0 -9 5 -15 11 -13 6 2 11 8 11 13 0 5 -5 11 -11 13 -6 2
-11 -4 -11 -13z"/>
<path d="M727 1834 c-8 -8 1 -24 14 -24 5 0 9 7 9 15 0 15 -12 20 -23 9z"/>
<path d="M675 1690 c-4 -6 -3 -16 3 -22 6 -6 12 -6 17 2 4 6 3 16 -3 22 -6 6
-12 6 -17 -2z"/>
<path d="M520 1685 c0 -8 5 -15 10 -15 6 0 10 7 10 15 0 8 -4 15 -10 15 -5 0
-10 -7 -10 -15z"/>
<path d="M650 1529 c0 -11 5 -17 10 -14 6 3 10 13 10 21 0 8 -4 14 -10 14 -5
0 -10 -9 -10 -21z"/>
<path d="M720 1536 c0 -8 4 -17 9 -20 10 -7 23 19 14 28 -11 11 -23 6 -23 -8z"/>
<path d="M680 1385 c0 -8 5 -15 10 -15 6 0 10 7 10 15 0 8 -4 15 -10 15 -5 0
-10 -7 -10 -15z"/>
<path d="M4130 634 c0 -8 5 -12 10 -9 6 3 10 10 10 16 0 5 -4 9 -10 9 -5 0
-10 -7 -10 -16z"/>
<path d="M4140 460 c0 -5 5 -10 10 -10 6 0 10 5 10 10 0 6 -4 10 -10 10 -5 0
-10 -4 -10 -10z"/>
<path d="M3827 1213 c-4 -3 -7 -11 -7 -17 0 -6 5 -5 12 2 6 6 9 14 7 17 -3 3
-9 2 -12 -2z"/>
<path d="M600 1235 c0 -8 5 -15 10 -15 6 0 10 7 10 15 0 8 -4 15 -10 15 -5 0
-10 -7 -10 -15z"/>
<path d="M417 1123 c-10 -9 -8 -51 2 -57 15 -9 33 22 26 44 -6 20 -16 25 -28
13z"/>
<path d="M415 967 c-9 -21 -3 -49 12 -54 19 -7 27 37 9 55 -14 14 -16 14 -21
-1z"/>
<path d="M3667 929 c4 -13 8 -18 11 -10 2 7 -1 18 -6 23 -8 8 -9 4 -5 -13z"/>
<path d="M1335 940 c-4 -6 -3 -16 3 -22 6 -6 12 -6 17 2 4 6 3 16 -3 22 -6 6
-12 6 -17 -2z"/>
<path d="M412 793 c4 -36 33 -39 33 -3 0 16 -6 26 -18 28 -15 3 -18 -2 -15
-25z"/>
<path d="M820 804 c0 -8 5 -12 10 -9 6 4 8 11 5 16 -9 14 -15 11 -15 -7z"/>
<path d="M934 786 c-8 -22 3 -33 18 -18 9 9 9 15 0 24 -9 9 -13 7 -18 -6z"/>
<path d="M1266 793 c-12 -12 -6 -33 9 -33 8 0 15 6 15 14 0 17 -14 28 -24 19z"/>
<path d="M1677 632 c-21 -23 -22 -65 -3 -82 39 -31 96 19 82 73 -5 21 -12 27
-35 27 -15 0 -35 -8 -44 -18z"/>
<path d="M1976 638 c-2 -7 -9 -32 -14 -55 -10 -42 -10 -43 17 -43 35 0 57 18
65 52 4 18 1 32 -10 42 -19 19 -53 21 -58 4z"/>
<path d="M666 595 c-3 -9 0 -15 9 -15 9 0 12 6 9 15 -4 8 -7 15 -9 15 -2 0 -5
-7 -9 -15z"/>
<path d="M950 550 c20 -13 67 -13 75 0 4 6 -12 10 -42 10 -35 0 -44 -3 -33
-10z"/>
<path d="M3530 405 c-6 -7 4 -33 29 -73 l38 -62 11 53 c15 78 8 98 -35 95 -19
-1 -38 -7 -43 -13z"/>
<path d="M3128 315 c-51 -28 -58 -124 -9 -140 29 -9 69 4 86 28 23 33 19 93
-7 111 -27 19 -35 19 -70 1z"/>
<path d="M510 301 c0 -11 -3 -26 -6 -35 -5 -12 1 -16 23 -16 33 0 53 16 53 41
0 18 -19 29 -51 29 -12 0 -19 -7 -19 -19z"/>
<path d="M2296 298 c-10 -39 -7 -48 18 -48 24 0 56 23 56 40 0 11 -33 30 -53
30 -8 0 -17 -10 -21 -22z"/>
</g>
</svg>
